@startuml

skinparam classAttributeIconSize 0

class Vector2D <<struct>>{
    double x
    double y
}

enum ptype{
    UNKNOWN = 0
    LINE = 1
    CORNER = 2
    ISOLATE = 3
}

class LPoint2D <<struct>>{
    int sid /'scan index'/
    double x /'position x'/
    double y /'position y'/
    double nx /'normal vector'/
    double ny /'normal vector'/
    double atd /'accumulated travel distance'/
    ptype type /'type of point'/

    LPoint2D(): sid(-1), x(0), y(0) { init() }
    LPoint2D(int id, double _x, double _y): x(_x), y(_y) { init(); sid = id; }
    void init()
    void setData(int id, double _x, double _y)
    void setXY(double _x, double _y)
    void calXY(double range, double angle)
    void calXYi(double range, double angle)
    void setSid(int i)
    void setAtd(double t)
    void setType(ptype t)
    void setNormal(double x, double y)
}

LPoint2D o-- ptype
LPoint2D o-- Vector2D

@enduml